<svg xmlns="http://www.w3.org/2000/svg" width="1031" height="41" viewBox="0 0 1031 41">
    <g transform="translate(-1077 -4455)">
        <rect width="750" height="41" transform="translate(1077 4455)" fill="#000000"/>
        <g transform="translate(1176.667 4485.569)">
            <g transform="translate(0 -16.951)">
                <g transform="translate(0 0)">
                    <path d="M1.188,1.292H12.973V-1.065H-1.36v22.3H12.973V18.874H1.188V10.815h10.8V8.458H1.188ZM39.473-1.065H36.606l-7.58,14.779L21.413-1.065H18.547v22.3h2.548V3.458l6.943,13.6h1.943l6.943-13.6V21.231h2.548Zm7.326,0v22.3h2.548V12.44h6.816c5.351,0,7.166-2.93,7.166-6.657V5.592c0-3.727-1.911-6.657-7.262-6.657Zm2.548,11.148V1.292h6.88c3.6,0,4.555,2.007,4.555,4.459,0,2.325-.86,4.332-4.459,4.332ZM78.775-1.479c-6.147,0-10.192,4.809-10.192,11.4v.319c0,6.593,4.045,11.4,10.192,11.4h.382c6.147,0,10.192-4.809,10.192-11.4V9.924c0-6.593-4.045-11.4-10.192-11.4ZM79.061.878c4.618,0,7.74,3.79,7.74,8.982v.446c0,5.192-3.121,8.982-7.74,8.982H78.87c-4.618,0-7.74-3.79-7.74-8.982V9.86c0-5.192,3.121-8.982,7.74-8.982Zm42.9-1.943h-2.644l-5.192,19.11-5.446-19.11h-2.867l-5.446,19.11L95.178-1.065H92.534l6.37,22.3h2.867l5.478-18.888,5.478,18.888h2.867Zm7.963,2.357h11.785V-1.065H127.379v22.3h14.333V18.874H129.927V10.815h10.8V8.458h-10.8Zm34.208,4.4c0-3.822-1.911-6.752-7.262-6.752H147.6v22.3h2.548V12.376h6.529l4.491,8.855h2.9l-4.714-9.077c3.5-.764,4.778-3.344,4.778-6.466m-13.982,4.332V1.292h6.88c3.6,0,4.555,2.007,4.555,4.427,0,2.293-.86,4.3-4.459,4.3ZM172.734-1.065h-2.548v22.3h2.548ZM197.895-1h-2.548V17.345l-13-18.41H179.74v22.3h2.548V2.885l13,18.41h2.612Zm25.99,10.606h-9.81v2.357h7.262c-.255,4.364-3.185,7.326-7.1,7.326-4.65,0-7.74-3.631-7.74-8.982V9.86c0-5.351,3.121-8.982,7.676-8.982h.1a8.561,8.561,0,0,1,7.071,3.535l1.656-1.784a10.969,10.969,0,0,0-8.6-4.109h-.223c-6.147,0-10.224,4.555-10.224,11.4v.319c0,6.816,4.109,11.4,10.288,11.4a7.863,7.863,0,0,0,7.1-3.918v3.5h2.548ZM250.671-1.479c-6.147,0-10.224,4.555-10.224,11.4v.319c0,6.912,4.2,11.4,10.638,11.4a10.282,10.282,0,0,0,8.5-4.2l-1.656-1.784a8.364,8.364,0,0,1-6.975,3.631h-.1c-4.587,0-7.867-3.727-7.867-8.982V9.86c0-5.351,3.121-8.982,7.676-8.982h.1a8.561,8.561,0,0,1,7.071,3.535l1.656-1.784a10.969,10.969,0,0,0-8.6-4.109Zm32.806.414H280.93V8.458h-12.9V-1.065h-2.548v22.3h2.548V10.815h12.9V21.231h2.548ZM304.02,14.287l2.771,6.943h2.676l-9.014-22.3h-2.867l-9.014,22.3h2.675l2.771-6.943ZM303.1,11.93h-8.154l4.077-10.224ZM332.4-1H329.85V17.345l-13-18.41h-2.612v22.3h2.548V2.885l13,18.41H332.4Zm25.99,10.606h-9.81v2.357h7.262c-.255,4.364-3.185,7.326-7.1,7.326-4.65,0-7.74-3.631-7.74-8.982V9.86c0-5.351,3.121-8.982,7.676-8.982h.1a8.561,8.561,0,0,1,7.071,3.535L357.5,2.63a10.969,10.969,0,0,0-8.6-4.109h-.223c-6.147,0-10.224,4.555-10.224,11.4v.319c0,6.816,4.109,11.4,10.288,11.4a7.863,7.863,0,0,0,7.1-3.918v3.5h2.548Zm9.555-8.313h11.785V-1.065H365.4v22.3h14.333V18.874H367.944V10.815h10.8V8.458h-10.8Zm38.285-2.357h-2.867l-7.581,14.779L388.169-1.065H385.3v22.3h2.548V3.458l6.943,13.6h1.943l6.943-13.6V21.231h2.548Zm20.542,15.352,2.771,6.943h2.676L423.2-1.065h-2.867l-9.014,22.3H414l2.771-6.943Zm-.924-2.357h-8.154L421.77,1.706Zm19.174-1.911L452.7,21.231h2.994L446.709,8.14l8.122-9.2h-3.217l-11.753,13.25V-1.065h-2.548v22.3h2.548V15.88Zm18.633-8.727h11.785V-1.065H461.106v22.3h14.333V18.874H463.654V10.815h10.8V8.458h-10.8Zm34.208,4.4c0-3.822-1.911-6.752-7.262-6.752h-9.269v22.3h2.548V12.376h6.529l4.491,8.855h2.9l-4.714-9.077c3.5-.764,4.777-3.344,4.777-6.466m-13.982,4.332V1.292h6.88c3.6,0,4.555,2.007,4.555,4.427,0,2.293-.86,4.3-4.459,4.3Zm27.073-11.5c-4.778,0-8.026,2.612-8.026,6.434,0,3.217,2.357,4.905,8.09,6.083,4.937,1.019,6.275,1.911,6.275,4.141,0,2.453-2.357,4.109-5.733,4.109a9.641,9.641,0,0,1-7.74-3.727l-1.656,1.784a11.769,11.769,0,0,0,9.46,4.3c4.809,0,8.217-2.675,8.217-6.529,0-3.5-2.2-5.287-8.09-6.5-4.841-.956-6.275-1.72-6.275-3.663,0-2.484,2.134-4.077,5.478-4.077a8.975,8.975,0,0,1,6.689,2.675L519.3,1.77a11.154,11.154,0,0,0-8.345-3.249m27.836,2.771h11.787V-1.065H536.24v22.3h2.548V10.975h10.8V8.618h-10.8ZM565.7-1.479c-6.147,0-10.192,4.809-10.192,11.4v.319c0,6.593,4.045,11.4,10.192,11.4h.382c6.147,0,10.192-4.809,10.192-11.4V9.924c0-6.593-4.045-11.4-10.192-11.4Zm.287,2.357c4.618,0,7.74,3.79,7.74,8.982v.446c0,5.192-3.121,8.982-7.74,8.982H565.8c-4.618,0-7.74-3.79-7.74-8.982V9.86c0-5.192,3.121-8.982,7.74-8.982Zm33.188,4.809c0-3.822-1.911-6.752-7.262-6.752h-9.269v22.3h2.548V12.376h6.529l4.491,8.855h2.9L594.4,12.153c3.5-.764,4.778-3.344,4.778-6.466m-13.983,4.332V1.292h6.88c3.6,0,4.555,2.007,4.555,4.427,0,2.293-.86,4.3-4.459,4.3Zm43.763,4.268,2.771,6.943H634.4l-9.014-22.3h-2.867l-9.014,22.3h2.675l2.771-6.943Zm-.924-2.357H619.88l4.077-10.224ZM663.45,9.159c1.784-.86,2.612-2.23,2.612-4.523,0-3.217-1.688-5.7-6.88-5.7h-9.173v22.3h9.651c5.16,0,7.23-2.707,7.23-6.434a5.659,5.659,0,0,0-3.44-5.638M652.557,1.292h6.657c3.344,0,4.3,1.5,4.3,3.6,0,2.23-1.242,3.5-4.586,3.5h-6.37Zm0,17.582V10.752h7.2c3.344,0,4.587,1.847,4.587,4.045,0,2.23-1.21,4.077-4.555,4.077ZM675.33,1.292h11.785V-1.065H672.782v22.3h14.333V18.874H675.33V10.815h10.8V8.458h-10.8Zm33.348,0V-1.065H691.1V1.292h7.517V21.231h2.548V1.292Zm21.722,0V-1.065H712.819V1.292h7.517V21.231h2.548V1.292Zm7.963,0h11.785V-1.065H735.815v22.3h14.333V18.874H738.363V10.815h10.8V8.458h-10.8Zm34.206,4.4c0-3.822-1.911-6.752-7.262-6.752h-9.268v22.3h2.548V12.376h6.529l4.491,8.855h2.9l-4.714-9.077c3.5-.764,4.778-3.344,4.778-6.466m-13.982,4.332V1.292h6.88c3.6,0,4.555,2.007,4.555,4.427,0,2.293-.86,4.3-4.459,4.3Zm37.9-11.5c-4.778,0-8.026,2.612-8.026,6.434,0,3.217,2.357,4.905,8.09,6.083,4.937,1.019,6.275,1.911,6.275,4.141,0,2.453-2.357,4.109-5.733,4.109a9.641,9.641,0,0,1-7.74-3.727L787.7,17.345a11.769,11.769,0,0,0,9.46,4.3c4.81,0,8.218-2.675,8.218-6.529,0-3.5-2.2-5.287-8.09-6.5-4.841-.956-6.275-1.72-6.275-3.663,0-2.484,2.134-4.077,5.478-4.077a8.975,8.975,0,0,1,6.689,2.675l1.656-1.784a11.154,11.154,0,0,0-8.345-3.249m24.016,0c-6.147,0-10.192,4.809-10.192,11.4v.319c0,6.593,4.045,11.4,10.192,11.4h.382c6.147,0,10.192-4.809,10.192-11.4V9.924c0-6.593-4.045-11.4-10.192-11.4Zm.287,2.357c4.618,0,7.74,3.79,7.74,8.982v.446c0,5.192-3.121,8.982-7.74,8.982H820.6c-4.618,0-7.74-3.79-7.74-8.982V9.86c0-5.192,3.121-8.982,7.74-8.982Zm25.927-2.357c-6.149,0-10.224,4.555-10.224,11.4v.319c0,6.912,4.2,11.4,10.638,11.4a10.282,10.282,0,0,0,8.5-4.2l-1.656-1.784A8.366,8.366,0,0,1,847,19.288h-.1c-4.586,0-7.865-3.727-7.865-8.982V9.86c0-5.351,3.121-8.982,7.676-8.982h.1a8.564,8.564,0,0,1,7.071,3.535l1.654-1.784a10.962,10.962,0,0,0-8.6-4.109Zm17.357.414h-2.548v22.3h2.548Zm9.874,2.357h11.785V-1.065H871.4v22.3h14.333V18.874H873.948V10.815h10.8V8.458h-10.8Zm33.348,0V-1.065H889.714V1.292h7.517V21.231h2.548V1.292Zm22.678-2.357h-2.9l-6.4,11.657L914.335-1.065h-2.9l7.995,14.4v7.9h2.548v-7.9Z"
                          transform="translate(1.36 -4.579)" fill="#fff"/>
                </g>
            </g>
        </g>
    </g>
</svg>