<svg xmlns="http://www.w3.org/2000/svg" width="162.056" height="50.468" viewBox="0 0 162.056 50.468">
    <g transform="translate(-358.535 -405.535)">
        <path d="M425.246,405.535l-4.465,1.446-8.068,2.555,13.5.005Z" transform="translate(15.534 0)" fill="#fff"/>
        <path d="M403.2,411.432l2.773-.4v31.023l-2.773.407Z" transform="translate(12.808 1.576)" fill="#fff"/>
        <path d="M410.986,411.343H427.4l.664,2.55H413.669V425.07H425.83v2.507H413.669v11.8h14.976l-.586,2.589H410.986Z"
              transform="translate(15.039 1.665)" fill="#fff"/>
        <g transform="translate(358.535 406.145)">
            <path d="M437.056,440.1c4.024,0,6.839-2.6,6.839-5.991,0-4.742-3.845-5.456-8.492-6.892-4.739-1.428-7.244-3.8-7.244-8.087,0-4.381,3.625-8.271,9.164-8.271a10.916,10.916,0,0,1,8.274,3.62l-1.791,2.059c-2.232-2.1-4.114-3.087-6.66-3.087a5.925,5.925,0,0,0-6.167,5.722,4.842,4.842,0,0,0,2.814,4.471c1.611.9,3.757,1.3,6.171,2.1,4.511,1.52,6.8,4.249,6.8,8.1,0,4.825-3.845,8.9-9.748,8.9a11.1,11.1,0,0,1-9.522-5.457l2.193-1.608q2.749,4.43,7.374,4.429"
                  transform="translate(-338.764 -404.618)" fill="#fff"/>
            <path d="M447.049,411.343h16.41l.667,2.55h-14.4V425.07h12.163v2.507H449.729v11.8h14.979l-.582,2.589H447.049Z"
                  transform="translate(-333.155 -404.48)" fill="#fff"/>
            <path d="M490.494,438.5a16.3,16.3,0,0,1-22.039,0,16.088,16.088,0,0,1-.983-22.312A16.214,16.214,0,0,1,490,414.668l-1.745,2.012a13.273,13.273,0,0,0-22.04,10.106,13.134,13.134,0,0,0,13.235,13.41,13.381,13.381,0,0,0,8.359-2.908v-9.563h-9.482l.551-2.509h11.613Z"
                  transform="translate(-328.454 -404.629)" fill="#fff"/>
            <path d="M403.718,443.749a1.581,1.581,0,0,0,1.206.748.982.982,0,0,0,1.042-.995c0-.65-.413-.84-1.215-1.134-1.113-.4-1.616-.831-1.616-1.817a1.77,1.77,0,0,1,1.882-1.724,2.32,2.32,0,0,1,1.78.858l-.587.637a1.633,1.633,0,0,0-1.2-.665.866.866,0,0,0-.942.867c0,.593.413.784,1.126,1.051,1.149.427,1.706.876,1.706,1.962a1.847,1.847,0,0,1-1.953,1.825,2.245,2.245,0,0,1-1.926-1.031Z"
                  transform="translate(-345.781 -396.599)" fill="#fff"/>
            <path d="M409.758,445.381a3.306,3.306,0,0,1-1.875-.539,3.427,3.427,0,0,1-.436-5.1,3.153,3.153,0,0,1,2.265-.914,3.666,3.666,0,0,1,1.06.165l.136.975a2.321,2.321,0,0,0-3.461,2.135,2.446,2.446,0,0,0,.665,1.755,2.273,2.273,0,0,0,1.589.677,2.337,2.337,0,0,0,.869-.147,3.77,3.77,0,0,0,.419-.211l-.117.977a2.716,2.716,0,0,1-1.114.229"
                  transform="translate(-344.78 -396.599)" fill="#fff"/>
            <path d="M410.532,438.963l.9-.094V441.6h3.038v-2.638l.914-.094v6.364l-.914.082v-2.886h-3.038v2.8l-.9.082Z"
                  transform="translate(-343.626 -396.587)" fill="#fff"/>
            <path d="M415.82,439.741a3.474,3.474,0,0,1,4.7,0,3.208,3.208,0,0,1,.939,2.364,3.245,3.245,0,0,1-.939,2.375,3.492,3.492,0,0,1-4.7,0,3.286,3.286,0,0,1-.939-2.375,3.248,3.248,0,0,1,.939-2.364m4.712,2.364a2.358,2.358,0,1,0-2.356,2.453,2.323,2.323,0,0,0,2.356-2.453"
                  transform="translate(-342.379 -396.6)" fill="#fff"/>
            <path d="M421.29,439.741a3.165,3.165,0,0,1,2.356-.916,3.134,3.134,0,0,1,2.346.916,3.2,3.2,0,0,1,.942,2.364,3.242,3.242,0,0,1-.942,2.375,3.149,3.149,0,0,1-2.346.91,3.181,3.181,0,0,1-2.356-.91,3.3,3.3,0,0,1-.939-2.375,3.259,3.259,0,0,1,.939-2.364M426,442.1a2.359,2.359,0,1,0-2.357,2.453A2.323,2.323,0,0,0,426,442.1"
                  transform="translate(-340.81 -396.6)" fill="#fff"/>
            <path d="M426.058,438.963l.912-.094v5.512h2.593l-.3.852h-3.2Z" transform="translate(-339.174 -396.587)"
                  fill="#fff"/>
            <path d="M431.71,439.741a3.473,3.473,0,0,1,4.7,0,3.218,3.218,0,0,1,.939,2.364,3.255,3.255,0,0,1-.939,2.375,3.491,3.491,0,0,1-4.7,0,3.273,3.273,0,0,1-.942-2.375,3.235,3.235,0,0,1,.942-2.364m4.708,2.364a2.356,2.356,0,1,0-2.352,2.453,2.321,2.321,0,0,0,2.352-2.453"
                  transform="translate(-337.824 -396.6)" fill="#fff"/>
            <path d="M436.474,438.942h3.2l.172.817h-2.463v1.825h1.889v.825h-1.889v2.8l-.914.082Z"
                  transform="translate(-336.188 -396.566)" fill="#fff"/>
            <path d="M441.871,438.826l2.622,4.727,2.46-4.743.607,6.463-.9-.008-.311-3.566-1.852,3.657-1.993-3.663-.21,3.6h-.871Z"
                  transform="translate(-334.767 -396.604)" fill="#fff"/>
            <path d="M469.025,438.826l2.621,4.727,2.461-4.743.609,6.463-.9-.008-.311-3.566-1.852,3.657-1.992-3.663-.212,3.6h-.865Z"
                  transform="translate(-326.98 -396.604)" fill="#fff"/>
            <path d="M449.454,438.791l3.264,6.5h-.986l-1.065-2.144h-2.482l-1.068,2.136-.894,0Zm.839,3.6-.875-1.789-.867,1.789Z"
                  transform="translate(-333.392 -396.609)" fill="#fff"/>
            <path d="M451.345,438.812l4.073,4.352v-4.184l.912-.094V445.4l-4.079-4.357.012,4.222-.917.006Z"
                  transform="translate(-331.923 -396.603)" fill="#fff"/>
            <path d="M458.529,438.791l3.262,6.486-.987.005-1.062-2.139H457.26l-1.05,2.128h-.939Zm.839,3.6-.876-1.789-.866,1.789Z"
                  transform="translate(-330.798 -396.609)" fill="#fff"/>
            <path d="M463.358,445.393a3.18,3.18,0,0,1-2.355-.911,3.246,3.246,0,0,1-.939-2.375,3.186,3.186,0,0,1,3.313-3.286,2.963,2.963,0,0,1,2.227.865l-.583.621a2.253,2.253,0,0,0-1.664-.656,2.454,2.454,0,0,0-.045,4.9,2.478,2.478,0,0,0,1.544-.519v-1.538H462.9l.323-.79h2.5v2.8a3.485,3.485,0,0,1-2.366.889"
                  transform="translate(-329.423 -396.601)" fill="#fff"/>
            <path d="M465.192,438.942h3.3l.2.817h-2.6V441.5h2.061v.822H466.1v2.019h2.8l-.265.867h-3.443Z"
                  transform="translate(-327.953 -396.566)" fill="#fff"/>
            <path d="M473.943,438.942h3.294l.2.817h-2.589V441.5h2.063v.822h-2.063v2.019h2.805l-.269.867h-3.439Z"
                  transform="translate(-325.444 -396.566)" fill="#fff"/>
            <path d="M477.234,438.812l4.071,4.352v-4.184l.915-.094V445.4l-4.084-4.357v4.224l-.9,0Z"
                  transform="translate(-324.5 -396.603)" fill="#fff"/>
            <path d="M483,439.77H481.37l.311-.829h3.689v.829H483.9v5.443l-.9.08Z"
                  transform="translate(-323.314 -396.566)" fill="#fff"/>
            <path d="M404,437.332l4.958-1.309-.381-12.408-3.194.314,2.9-.712-3.806-7.677-2.826-.329-3.4-3.5-6.4-3.268.615,2.938-.975-1.637-7.549-2.437v4.112l-.426-5.412-5.463,2.232-1.484,1.5,1.512-3.059-7.617,3.432-5.233,4.679h-1.494l-4.456,8.5-.75.188.381,12.411,7.912-.779-.129,1.5,3.415-.144-2.925.816,4.528,8.6-.045-.01-5.243-9.681-6.876,1.684,3.8,7.679,3.3.382L370.1,449.5l6.4,3.27-.4-1.911.762,1.276,7.549,2.437v-4.1l.425,5.4,5.463-2.23.717-.724-.745,1.505,7.619-3.43,5.233-4.679h1.493l5.092-9.719Zm3.881-12.881.436,11.066-8.6,2.286.145-.58-.327-.073,1.561-12.081Zm-23-9.324,10.775,1.7-.726-1.415.654.181,4.57,8.526-13.678,3.846Zm.448,8.7-1.11-.046-9.8-1.242,10.507-1.971Zm15.135.965-.9,6.839.582-6.749Zm1.9-8.792,1.633.217,3.375,6.5-5.7,1.378L397,415.416l5.987,1.342Zm-4.534-3.773,3.266,3.338-7.439-1.451-.943-4.426Zm-6.749-1.85,1.85,3.047.255,1.2.471.073.8,1.306-9.869-1.633-.036-6.131Zm-6.241,9.542-12.625,2.431-1.017-.181.109-1.6,2.612-5.878,9.361-1.922Zm-6.421-10.994L382.956,407l.363,5.043-9.07,1.96-.871-.108.291-.255,1.089-.289.87-1.778Zm-7.656,1.814,5.914-2.685-2.359,4.753-7.619,2.032-.472-.073Zm1.619,3.239-.463.47-.769.162-.014.187h-1.762Zm-8.222,1.513,8.635-.072-3.011,7.038-1.852.181v-1.6L360.17,423Zm2.213,18.975-6.894.726-.326-11.174,8.236-2.068Zm1.053,1.525c0-.109.943-12.7.943-12.7l1.922-.327.109-.291s13.5,1.886,13.5,1.814-1.487,10.958-1.487,10.958Zm.69,1.85,4.9-1.415,9.034-.4,1.343,10.7-10.668-1.56.582,1.015-.8-.072Zm-2.177,7.437-2.213-.4-3.194-6.568,5.588-1.27,4.644,8.671-5.479-1.161Zm4.389,3.665-3.011-3.266,7.329,1.525.835,4.353Zm6.93,2.612-1.451-2.539-.544-2.323-1.015-.253-.327-.508,9.76,1.632.072,5.987Zm6.944-14.1-.3,7.59-.966-7.762,1.345.17Zm-1.139-.881,1.451-12.082h.834l.618,4.39,13.423-3.773-1.015,12.952h-.291l-.181.472Zm1.451,11.61.29-10.049,4.1-.109,8.709,1.234-3.156,7.11Zm12.642-1.583.084-.287h1.74l-3.6.978h-2.06Zm-7.237,6.589-4.5,1.778-.544-6.023,4.861-.979,3.555-.109-1.27,3.194Zm7.655-2.72L391.663,453l2.323-4.608,7.547-2.1h.544Zm6.531-4.863-8.563.072,2.976-6.929,9.941-1.306Z"
                  transform="translate(-358.535 -406.009)" fill="#fff"/>
        </g>
    </g>
</svg>