<svg xmlns="http://www.w3.org/2000/svg" width="56.824" height="64.991" viewBox="0 0 56.824 64.991"><g transform="translate(-897.754 -196.147)"><path d="M946.274,215.9V203.14L926.166,197.4l-20.108,5.775,20.108,6.59,19.4-6.326" fill="none" stroke="#13142c" stroke-linecap="round" stroke-linejoin="round" stroke-width="2.5"/><path d="M913.581,210.152v2.394c2.916,2.568,7.524,4.214,12.586,4.214s9.667-1.646,12.584-4.214v-6.8" fill="none" stroke="#13142c" stroke-linejoin="round" stroke-width="2.5"/><path d="M915.256,218.629c.768,8.067,5.267,14.671,10.8,14.671,5.561,0,10.029-6.6,10.8-14.671a40.407,40.407,0,0,0,.22-4.744" fill="none" stroke="#13142c" stroke-linejoin="round" stroke-width="2.5"/><path d="M953.238,259.8l-1.014-13.507c-1-7.458-5.485-8.289-5.485-8.289s-4.882-1.379-10.066-2.246l-10.507,14.023-10.507-14.023c-5.185.867-10.066,2.246-10.066,2.246s-4.483.831-5.486,8.289L899.094,259.8" fill="none" stroke="#13142c" stroke-linecap="round" stroke-linejoin="round" stroke-width="2.5"/><line x2="7.25" transform="translate(936.816 247)" stroke-width="2.5" stroke="#fd9e00" stroke-linecap="round" stroke-linejoin="round" fill="none"/></g></svg>