<svg xmlns="http://www.w3.org/2000/svg" width="28.692" height="27.058" viewBox="0 0 28.692 27.058">
  <g id="Soustraction_1" data-name="Soustraction 1" transform="translate(364.197 20.521)" fill="#001f44">
    <path d="M -349.2603454589844 6.036684513092041 C -349.7878723144531 6.036684513092041 -350.2864990234375 5.819894313812256 -350.6643981933594 5.426244258880615 C -351.4464416503906 4.604760646820068 -351.448974609375 3.267320871353149 -350.6705627441406 2.440993547439575 L -343.9140014648438 -4.022465705871582 L -343.0136413574219 -4.883765697479248 L -344.2596435546875 -4.883765697479248 L -361.7030334472656 -4.883765697479248 C -362.8212890625 -4.883765697479248 -363.697265625 -5.809865474700928 -363.697265625 -6.992125511169434 C -363.697265625 -8.154675483703613 -362.7990112304688 -9.100475311279297 -361.6948852539063 -9.100485801696777 L -344.2514953613281 -9.100485801696777 L -343.0054931640625 -9.100485801696777 L -343.9058532714844 -9.961785316467285 L -350.6624145507813 -16.42524337768555 C -351.4407958984375 -17.25157165527344 -351.4382629394531 -18.58901596069336 -350.65478515625 -19.41201591491699 C -350.2809753417969 -19.8046760559082 -349.785400390625 -20.02093505859375 -349.2593383789063 -20.02093505859375 C -348.7325134277344 -20.02093505859375 -348.2342529296875 -19.80414581298828 -347.8563232421875 -19.41049575805664 L -347.8501892089844 -19.40409469604492 L -347.8438415527344 -19.39792633056641 L -336.5871276855469 -8.475435256958008 C -336.206298828125 -8.107285499572754 -336.00537109375 -7.600225448608398 -336.00537109375 -7.008425712585449 L -336.00537109375 -6.975825309753418 C -336.00537109375 -6.384025573730469 -336.206298828125 -5.876965522766113 -336.5864562988281 -5.50946569442749 L -347.8438415527344 5.413674354553223 L -347.8501892089844 5.419844627380371 L -347.8563232421875 5.426244258880615 C -348.2342529296875 5.819894313812256 -348.7328796386719 6.036684513092041 -349.2603454589844 6.036684513092041 Z" stroke="none"/>
    <path d="M -349.2603454589844 5.536684513092041 C -348.8702697753906 5.536684513092041 -348.499755859375 5.374494552612305 -348.217041015625 5.079984664916992 L -348.2047424316406 5.067184448242188 L -348.1920166015625 5.054834365844727 L -336.9339904785156 -5.868945598602295 C -336.5797424316406 -6.21141529083252 -336.50537109375 -6.659895420074463 -336.50537109375 -6.975825309753418 L -336.50537109375 -7.008425712585449 C -336.50537109375 -7.324355602264404 -336.5797424316406 -7.772835731506348 -336.9353332519531 -8.116595268249512 L -348.1920166015625 -19.03908538818359 L -348.2047424316406 -19.05143547058105 L -348.2170104980469 -19.0642261505127 C -348.499755859375 -19.35873603820801 -348.8699340820313 -19.52093505859375 -349.2593383789063 -19.52093505859375 C -349.6471557617188 -19.52093505859375 -350.0141296386719 -19.35981559753418 -350.2926635742188 -19.0672550201416 C -350.8929748535156 -18.4366512298584 -350.897705078125 -17.4137077331543 -350.3067626953125 -16.77697372436523 L -343.5602416992188 -10.32309532165527 L -341.759521484375 -8.600485801696777 L -344.2514953613281 -8.600485801696777 L -361.6948852539063 -8.600485801696777 C -362.5232849121094 -8.600475311279297 -363.197265625 -7.878975391387939 -363.197265625 -6.992125511169434 C -363.197265625 -6.090245723724365 -362.5409240722656 -5.383765697479248 -361.7030334472656 -5.383765697479248 L -344.2596435546875 -5.383765697479248 L -341.7676696777344 -5.383765697479248 L -343.5683898925781 -3.661155462265015 L -350.3149108886719 2.792724132537842 C -350.9058532714844 3.429459571838379 -350.9011535644531 4.452385902404785 -350.3037109375 5.07997465133667 C -350.0209655761719 5.374484539031982 -349.6504516601563 5.536684513092041 -349.2603454589844 5.536684513092041 M -349.2603759765625 6.53668212890625 C -349.898193359375 6.53668212890625 -350.5360107421875 6.281959533691406 -351.0250854492188 5.772514343261719 C -351.9950561523438 4.753634452819824 -351.9950561523438 3.107104539871216 -351.0250854492188 2.08821439743042 L -344.2596435546875 -4.383765697479248 L -361.7030334472656 -4.383765697479248 C -363.08056640625 -4.383765697479248 -364.197265625 -5.52491569519043 -364.197265625 -6.992125511169434 C -364.197265625 -8.43487548828125 -363.08056640625 -9.600475311279297 -361.6948852539063 -9.600485801696777 L -344.2514953613281 -9.600485801696777 L -351.0169372558594 -16.07246589660645 C -351.9869079589844 -17.09135627746582 -351.9869079589844 -18.73787498474121 -351.0169372558594 -19.75676536560059 C -350.5319519042969 -20.26621055603027 -349.8961486816406 -20.52093315124512 -349.2593383789063 -20.52093315124512 C -348.6225280761719 -20.52093315124512 -347.9847106933594 -20.26621055603027 -347.4956359863281 -19.75676536560059 L -336.2389526367188 -8.834275245666504 C -335.7499084472656 -8.361515045166016 -335.50537109375 -7.717575550079346 -335.50537109375 -7.008425712585449 L -335.50537109375 -6.975825309753418 C -335.50537109375 -6.266675472259521 -335.7499084472656 -5.622735500335693 -336.2389526367188 -5.149975299835205 L -347.4956359863281 5.772514343261719 C -347.9847106933594 6.281959533691406 -348.6225280761719 6.53668212890625 -349.2603759765625 6.53668212890625 Z" stroke="none" fill="#001f44"/>
  </g>
</svg>
