<svg xmlns="http://www.w3.org/2000/svg" width="53.609" height="53.609" viewBox="0 0 53.609 53.609"><g transform="translate(-1097.314 -391.502)"><path d="M1144.006,391.515l-39.343-.013a7.358,7.358,0,0,0-7.349,7.349v46.26h40.639V410.122l1.792-1.194,3.4,1.7,3.459-1.729,4.323,2.162V398.851a7.356,7.356,0,0,0-6.917-7.336Zm-7.782,7.336v44.53h-37.18v-44.53a5.626,5.626,0,0,1,5.619-5.62h34.179a7.34,7.34,0,0,0-2.618,5.62Zm12.969,9.409-2.594-1.3-3.459,1.73-3.519-1.761-1.668,1.111v-9.192a5.62,5.62,0,1,1,11.24,0Zm0,0" fill="#001835"/><path d="M1123,410.271" fill="#001835"/><path d="M1113.525,402.452l-1.293-1.15-6.173,6.945-1.108-1.661-1.439.96,2.351,3.526Zm0,0" fill="#fd9e00"/><rect width="13.835" height="1.73" transform="translate(1101.637 413.118)" fill="#001835"/><rect width="13.835" height="1.73" transform="translate(1101.637 417.441)" fill="#001835"/><rect width="13.835" height="1.73" transform="translate(1101.637 421.764)" fill="#fd9e00"/><rect width="13.835" height="1.73" transform="translate(1101.637 426.088)" fill="#fd9e00"/><rect width="13.835" height="1.729" transform="translate(1101.637 430.411)" fill="#001835"/><rect width="6.917" height="1.729" transform="translate(1101.637 434.735)" fill="#001835"/><rect width="13.835" height="1.73" transform="translate(1119.795 413.118)" fill="#001835"/><rect width="13.835" height="1.73" transform="translate(1119.795 417.441)" fill="#fd9e00"/><rect width="13.835" height="1.73" transform="translate(1119.795 421.764)" fill="#001835"/><rect width="10.376" height="1.73" transform="translate(1119.795 426.088)" fill="#001835"/></g></svg>