<svg xmlns="http://www.w3.org/2000/svg" width="56.421" height="64.145" viewBox="0 0 56.421 64.145"><g transform="translate(-1097.314 -124.353)"><path d="M1153.735,124.372l-6.014,4.5-6.049,14.1h-4.863l-1.909-4.138h1.247a4.126,4.126,0,0,0,4.139-4.118V130.56h2.068v-6.207h-6.207v6.207h2.069v4.159a2.054,2.054,0,0,1-2.069,2.049h-2.2l-2.644-5.721,3.168-1.578-10.373-4.443-2.439,8.534a9.308,9.308,0,1,0-14.478,7.857v1.558h-2.506l-.161.849a23.3,23.3,0,0,0-.139,7.962l-7.058,12.581,7.794,1.781v13.039h10.347V188.5h24.831V174.081a26.966,26.966,0,0,0,11.371-22.149l0-3.774a23.9,23.9,0,0,0-.4-4.324l-.152-.859h-2.032l4.656-11.153Zm-15.519,4.139v-2.069h2.07v2.069Zm-3.687,14.464H1130.6l-1.881-4.138h3.9Zm-9.091-15.12,4.113,1.762-.971.476,3.085,6.675h-3.881l-2.521-5.534-.926.468Zm2.9,15.12h-4.6v-2.048a2.088,2.088,0,0,1,2.069-2.089h.651Zm-4.063-8.92,1.255,2.761a4.129,4.129,0,0,0-3.863,4.11v2.049h-4.138v-1.558a9.352,9.352,0,0,0,3.949-5.965Zm-19.161-.371a7.242,7.242,0,1,1,10.863,6.266l-.517.3v2.727h-2.07V136.6a3.1,3.1,0,1,0-2.068,0v6.378h-2.07v-2.727l-.516-.3a7.268,7.268,0,0,1-3.622-6.265Zm7.242,1.035a1.035,1.035,0,1,1,1.034-1.035,1.036,1.036,0,0,1-1.034,1.035Zm37.018,10.326a21.763,21.763,0,0,1,.226,3.1l0,3.781a25.188,25.188,0,0,1-10.926,20.76l-.455.311v13.427h-20.692v-9.311h-10.346V164.5l-6.706-1.53,6.057-10.8-.058-.369a21.316,21.316,0,0,1-.073-6.755Zm-2.531-2.07h-2.915l5.157-12.024,2.294,1.143Zm4.827-13.035-1.144-.572,1.144-.857Zm0,0" fill="#001835"/><path d="M1114.421,151.252a2.9,2.9,0,0,1-3.1-3.1h-2.07a5.173,5.173,0,0,0,10.346,0h-2.069a2.9,2.9,0,0,1-3.1,3.1Zm0,0" fill="#fd9e00"/></g></svg>