<svg xmlns="http://www.w3.org/2000/svg" width="59.507" height="59.379" viewBox="0 0 59.507 59.379">
  <defs>
    <style>
      .cls-1, .cls-2, .cls-3 {
        fill: none;
        stroke-linejoin: round;
        stroke-width: 2.5px;
      }

      .cls-1 {
        stroke: #fd9e00;
      }

      .cls-2 {
        stroke: #f7a600;
      }

      .cls-3 {
        stroke: #001f44;
      }

      .cls-4, .cls-5 {
        fill: #001f44;
      }

      .cls-5 {
        font-size: 31.398px;
        font-family: Arial-Black, Arial;
        font-weight: 800;
      }
    </style>
  </defs>
  <g id="picto_evenements" transform="translate(1.25 1.25)">
    <g id="Groupe_44" data-name="Groupe 44" transform="translate(-43.469 -34.046)">
      <g id="Groupe_43" data-name="Groupe 43">
        <path id="Tracé_37" data-name="Tracé 37" class="cls-1" d="M83.583,86.08,70.561,90.925,74.332,77.34,90.456,59.061c.89-1.007,2.757-.829,4.149.392l4.479,3.954c1.391,1.227,1.8,3.058.91,4.066Z"/>
        <line id="Ligne_6" data-name="Ligne 6" class="cls-1" x1="9.277" y1="8.186" transform="translate(74.896 76.907)"/>
        <line id="Ligne_7" data-name="Ligne 7" class="cls-2" x1="2.565" y1="2.32" transform="translate(71.961 86.923)"/>
        <line id="Ligne_8" data-name="Ligne 8" class="cls-1" y1="10.348" x2="9.127" transform="translate(79.713 70.741)"/>
        <line id="Ligne_9" data-name="Ligne 9" class="cls-1" x2="9.117" y2="8.042" transform="translate(87.206 63.171)"/>
        <path id="Tracé_38" data-name="Tracé 38" class="cls-3" d="M67.627,83.879H46.469a3.009,3.009,0,0,1-3-3V37.046a3.009,3.009,0,0,1,3-3H84.3a3.009,3.009,0,0,1,3,3V55.408"/>
      </g>
    </g>
    <rect id="Rectangle_9" data-name="Rectangle 9" class="cls-4" width="42.732" height="9.311" transform="translate(0.468 0.206)"/>
    <text id="_1" data-name="1" class="cls-5" transform="translate(11.109 39.961)"><tspan x="0" y="0">1</tspan></text>
  </g>
</svg>
