<svg id="picto_fleche_bg_bleu" xmlns="http://www.w3.org/2000/svg" width="40" height="40" viewBox="0 0 40 40">
  <defs>
    <style>
      .cls-1, .cls-3 {
        fill: #000000;
      }

      .cls-2, .cls-3 {
        stroke: none;
      }
    </style>
  </defs>
  <g id="Soustraction_1" data-name="Soustraction 1" class="cls-1" transform="translate(40 40) rotate(180)">
    <path class="cls-2" d="M 39.49991607666016 39.49991607666016 L 0.4999961256980896 39.49991607666016 L 0.4999961256980896 0.4999961256980896 L 39.49991607666016 0.4999961256980896 L 39.49991607666016 39.49991607666016 Z M 17.80660438537598 30.99667739868164 C 18.29547309875488 31.50210380554199 18.94286346435547 31.78034591674805 19.63057518005371 31.78034591674805 C 20.32231521606445 31.78034591674805 20.97112655639648 31.49907684326172 21.45749664306641 30.98833656311035 C 22.44423675537109 29.95208549499512 22.44428634643555 28.26552581787109 21.45762634277344 27.22870635986328 L 21.44953536987305 27.22019577026367 L 21.44105529785156 27.21208572387695 L 16.70359420776367 22.67998695373535 L 29.99347686767578 22.67998695373535 C 31.41910552978516 22.67998695373535 32.57893753051758 21.48057556152344 32.57893753051758 20.00630569458008 C 32.57893753051758 19.28751564025879 32.31310653686523 18.61557579040527 31.83040618896484 18.1142463684082 C 31.34515571594238 17.61022567749023 30.6953067779541 17.33264541625977 30.00056648254395 17.33264541625977 L 16.71026992797852 17.33264541625977 L 21.44763565063477 12.80106639862061 L 21.45612525939941 12.79294586181641 L 21.46422576904297 12.78443622589111 C 22.45070648193359 11.74777603149414 22.45070648193359 10.0610466003418 21.4642162322998 9.024426460266113 C 20.97312545776367 8.513155937194824 20.3227653503418 8.232505798339844 19.63134574890137 8.232505798339844 C 18.94302749633789 8.232505798339844 18.29535675048828 8.510678291320801 17.80660247802734 9.015965461730957 L 8.432226181030273 18.11268615722656 C 7.933125972747803 18.59501647949219 7.668926239013672 19.24551582336426 7.668926239013672 19.99313545227051 L 7.668926239013672 20.02000617980957 C 7.668926239013672 20.76757621765137 7.93311595916748 21.41806602478027 8.43294620513916 21.90114593505859 L 17.80660438537598 30.99667739868164 Z"/>
    <path class="cls-3" d="M 38.99991607666016 38.99991607666016 L 38.99991607666016 0.9999961256980896 L 0.9999961256980896 0.9999961256980896 L 0.9999961256980896 38.99991607666016 L 38.99991607666016 38.99991607666016 M 17.45273399353027 31.34999656677246 L 8.085466384887695 22.26067543029785 C 7.485856056213379 21.68115615844727 7.168926239013672 20.90634536743164 7.168926239013672 20.02000617980957 L 7.168926239013672 19.99313545227051 C 7.168926239013672 19.10673522949219 7.485876083374023 18.33191680908203 8.084026336669922 17.75386619567871 L 17.45273017883301 8.662651062011719 C 18.0359001159668 8.062648773193359 18.80880737304688 7.732506275177002 19.63134574890137 7.732506275177002 C 20.46014595031738 7.732506275177002 21.23855590820313 8.067716598510742 21.82642555236816 8.679745674133301 C 22.99376678466797 9.906415939331055 22.99377632141113 11.9023962020874 21.82643699645996 13.12911605834961 L 21.81023597717285 13.14613628387451 L 21.79325675964355 13.16238594055176 L 17.95632362365723 16.83264541625977 L 30.00056648254395 16.83264541625977 C 30.83245658874512 16.83264541625977 31.61022567749023 17.16464614868164 32.19059753417969 17.76744651794434 C 32.76344680786133 18.3624153137207 33.07893753051758 19.15752601623535 33.07893753051758 20.00630569458008 C 33.07893753051758 21.75627708435059 31.6948070526123 23.17998695373535 29.99347686767578 23.17998695373535 L 17.94955253601074 23.17998695373535 L 21.78668594360352 26.85078620910645 L 21.80364608764648 26.86701583862305 L 21.81982612609863 26.8840160369873 C 22.9874153137207 28.11096572875977 22.9873161315918 30.10681533813477 21.8195858001709 31.3331470489502 C 21.23791694641113 31.94395637512207 20.46050643920898 32.28034591674805 19.63057518005371 32.28034591674805 C 18.80868339538574 32.28034591674805 18.03599548339844 31.9500675201416 17.45273399353027 31.34999656677246 M 39.99991607666016 39.99991607666016 L -3.869018655677792e-06 39.99991607666016 L -3.869018655677792e-06 -3.869018655677792e-06 L 39.99991607666016 -3.869018655677792e-06 L 39.99991607666016 39.99991607666016 Z M 19.63134574890137 8.732505798339844 C 19.07731628417969 8.732505798339844 18.55500602722168 8.958596229553223 18.1606559753418 9.369115829467773 L 8.780426025390625 18.47151565551758 C 8.380386352539063 18.85811614990234 8.168926239013672 19.38428688049316 8.168926239013672 19.99313545227051 L 8.168926239013672 20.02000617980957 C 8.168926239013672 20.62881660461426 8.380386352539063 21.15498542785645 8.780426025390625 21.5416259765625 L 18.1606559753418 30.64352607727051 C 18.55514526367188 31.05420684814453 19.0771656036377 31.28034591674805 19.63057518005371 31.28034591674805 C 20.18416595458984 31.28034591674805 20.70435523986816 31.05417633056641 21.09541702270508 30.64352607727051 C 21.90116691589355 29.7973461151123 21.90116691589355 28.42009544372559 21.09541702270508 27.57338523864746 L 15.45762634277344 22.17998695373535 L 29.99347686767578 22.17998695373535 C 31.14339637756348 22.17998695373535 32.07893753051758 21.20487594604492 32.07893753051758 20.00630569458008 C 32.07893753051758 19.41746520996094 31.86275672912598 18.86872673034668 31.4702262878418 18.46104621887207 C 31.08007621765137 18.05580520629883 30.55814552307129 17.83264541625977 30.00056648254395 17.83264541625977 L 15.46422576904297 17.83264541625977 L 21.10201644897461 12.43975639343262 C 21.90763664245605 11.59315586090088 21.90763664245605 10.21567630767822 21.10201644897461 9.369115829467773 C 20.70769691467285 8.958596229553223 20.18538665771484 8.732505798339844 19.63134574890137 8.732505798339844 Z"/>
  </g>
</svg>
