<svg xmlns="http://www.w3.org/2000/svg" width="60" height="50.152" viewBox="0 0 60 50.152">
  <g id="outline" transform="translate(-921.438 -809.789)">
    <path id="Path_297" data-name="Path 297" d="M965.021,815.563a1,1,0,0,0-.362-.726,21.936,21.936,0,0,0-11.844-4.939c-.722-.071-1.455-.107-2.187-.108H950.6c-.734,0-1.467.037-2.187.108a21.97,21.97,0,0,0-16.24,9.838l-.008.011h0a22.074,22.074,0,0,0,1.432,26.156,1,1,0,0,0,.726.364h.047a1.008,1.008,0,0,0,.709-.294l29.655-29.655A1.006,1.006,0,0,0,965.021,815.563Zm-17.663,15.289H941.2a29.523,29.523,0,0,1,1.245-7.55,63.589,63.589,0,0,0,7.163.521v4.78Zm-16.78,0a19.935,19.935,0,0,1,2.868-9.384,63.143,63.143,0,0,0,6.991,1.543,31.482,31.482,0,0,0-1.245,7.842Zm18.4-18.991c.208-.017.417-.032.626-.042v10a61.731,61.731,0,0,1-6.5-.452A29.228,29.228,0,0,1,948.982,811.861Zm-3.63,21-3.781,3.78a29.88,29.88,0,0,1-.37-3.78Zm6.262-9.036q1.441-.024,2.886-.112l-2.886,2.886Zm5.075-2.3c-1.679.167-3.38.265-5.075.294v-10c.21.01.419.025.627.042a29.39,29.39,0,0,1,5.516,8.593Zm-10.755-9.18a31.158,31.158,0,0,0-4.866,8.736,61.147,61.147,0,0,1-6.427-1.363A19.954,19.954,0,0,1,945.934,812.342Zm-11.476,31.411a20.091,20.091,0,0,1-3.882-10.894h8.617a31.712,31.712,0,0,0,.659,5.5Zm24.825-24.826a31.283,31.283,0,0,0-4-6.586,19.89,19.89,0,0,1,7.222,3.361Z" transform="translate(0.919)" fill="#fff"/>
    <path id="Path_298" data-name="Path 298" d="M968.185,818.871a22.013,22.013,0,0,0-1.432-1.938,1,1,0,0,0-1.412-.135.922.922,0,0,0-.07.064l-29.655,29.655a1,1,0,0,0,0,1.418.921.921,0,0,0,.07.063,21.918,21.918,0,0,0,11.844,4.939,22.508,22.508,0,0,0,4.21.019v5.105a1,1,0,0,0,1.74.68l9-9.745a22.072,22.072,0,0,0,5.708-30.127Zm-6.949,28.547a1,1,0,0,0-.16.14l-7.328,7.939V851.83a1,1,0,0,0-1-1,.969.969,0,0,0-.141.01c-.3.044-.586.078-.863.1a20.331,20.331,0,0,1-4.01,0,19.914,19.914,0,0,1-9.892-3.808l28.051-28.051q.324.439.621.891A20.067,20.067,0,0,1,961.235,847.417Z" transform="translate(1.795 0.876)" fill="#fff"/>
    <circle id="Ellipse_38" data-name="Ellipse 38" cx="2.006" cy="2.006" r="2.006" transform="translate(949.523 839.88)" fill="#fff"/>
    <circle id="Ellipse_39" data-name="Ellipse 39" cx="2.006" cy="2.006" r="2.006" transform="translate(955.542 839.88)" fill="#fff"/>
    <circle id="Ellipse_40" data-name="Ellipse 40" cx="2.006" cy="2.006" r="2.006" transform="translate(961.56 839.88)" fill="#fff"/>
    <path id="Path_299" data-name="Path 299" d="M929.461,845.2a1,1,0,0,0-1.12.871l-.085.676a26.083,26.083,0,0,1,2.915-33.626,1,1,0,1,0-1.406-1.43l-.006,0a28.088,28.088,0,0,0-3.19,36.14l-.847-.125a1,1,0,1,0-.294,1.984l3.384.5a1,1,0,0,0,1.139-.846l0-.023.376-3.01a1,1,0,0,0-.871-1.119Z" transform="translate(0 0.208)" fill="#fd9e00"/>
    <path id="Path_300" data-name="Path 300" d="M970.681,814.46a1,1,0,0,0,0-2.007h-3.009a1,1,0,0,0-1,1v3.01a1,1,0,0,0,2.006,0v-.331a26.08,26.08,0,0,1-2.534,33.729,1,1,0,0,0,1.425,1.412,28.084,28.084,0,0,0,2.361-36.815Z" transform="translate(5.741 0.344)" fill="#fd9e00"/>
  </g>
</svg>
