<svg id="picto_fleche_gauche_bg_bleu" xmlns="http://www.w3.org/2000/svg" width="48" height="48" viewBox="0 0 48 48">
  <defs>
    <style>
      .cls-1, .cls-3 {
        fill: #000000;
      }

      .cls-2, .cls-3 {
        stroke: none;
      }
    </style>
  </defs>
  <g id="Soustraction_1" data-name="Soustraction 1" class="cls-1">
    <path class="cls-2" d="M 47.49991607666016 47.49991607666016 L 0.5000061392784119 47.49991607666016 L 0.5000061392784119 0.5000061392784119 L 47.49991607666016 0.5000061392784119 L 47.49991607666016 47.49991607666016 Z M 21.43868446350098 37.12532806396484 C 22.00646209716797 37.71295547485352 22.75826835632324 38.03643798828125 23.55670547485352 38.03643798828125 C 24.35915565490723 38.03643798828125 25.11202621459961 37.70992660522461 25.67660522460938 37.11704635620117 C 26.82447624206543 35.91156768798828 26.82452583312988 33.94955444335938 25.67672538757324 32.7433967590332 L 25.66863632202148 32.73489761352539 L 25.66015625 32.72677612304688 L 19.79512596130371 27.11599540710449 L 35.99219512939453 27.11599540710449 C 37.64780426025391 27.11599540710449 38.99473571777344 25.72156524658203 38.99473571777344 24.00757598876953 C 38.99473571777344 23.17101669311523 38.68566513061523 22.38930702209473 38.12445449829102 21.80645561218262 C 37.56119537353516 21.22140693664551 36.80695724487305 20.89918518066406 36.00069427490234 20.89918518066406 L 19.8031177520752 20.89918518066406 L 25.66804695129395 15.2890157699585 L 25.67653656005859 15.28089618682861 L 25.68463706970215 15.27238655090332 C 26.83224678039551 14.06641578674316 26.83224678039551 12.10418605804443 25.68462562561035 10.8982458114624 C 25.11467552185059 10.30487632751465 24.35986518859863 9.979016304016113 23.55762672424316 9.979016304016113 C 22.75845146179199 9.979016304016113 22.00631713867188 10.30239772796631 21.43868446350098 10.88984298706055 L 10.18831634521484 21.8069953918457 C 9.609195709228516 22.36666679382324 9.302705764770508 23.12239646911621 9.302705764770508 23.99176597595215 L 9.302705764770508 24.02401542663574 C 9.302705764770508 24.89335632324219 9.609195709228516 25.64907646179199 10.18903636932373 26.20948600769043 L 21.43868446350098 37.12532806396484 Z"/>
    <path class="cls-3" d="M 46.99991607666016 46.99991607666016 L 46.99991607666016 1.000006079673767 L 1.000006079673767 1.000006079673767 L 1.000006079673767 46.99991607666016 L 46.99991607666016 46.99991607666016 M 21.08473014831543 37.47856521606445 L 9.84156608581543 26.56900596618652 C 9.161935806274414 25.91216659545898 8.802705764770508 25.0321159362793 8.802705764770508 24.02401542663574 L 8.802705764770508 23.99176597595215 C 8.802705764770508 22.98361587524414 9.161946296691895 22.10356521606445 9.840116500854492 21.44817543029785 L 21.08489227294922 10.53644847869873 C 21.74691009521484 9.854399681091309 22.62430763244629 9.479016304016113 23.55762672424316 9.479016304016113 C 24.49723625183105 9.479016304016113 25.3801155090332 9.85943603515625 26.04683685302734 10.55356597900391 C 27.37531661987305 11.94955635070801 27.37531661987305 14.22103595733643 26.04684638977051 15.61706638336182 L 26.0306453704834 15.6340856552124 L 26.0136661529541 15.65033626556396 L 21.04917144775391 20.39918518066406 L 36.00069427490234 20.39918518066406 C 36.94410705566406 20.39918518066406 37.82627487182617 20.77581596374512 38.48462677001953 21.45965576171875 C 39.13600540161133 22.13614654541016 39.49473571777344 23.041015625 39.49473571777344 24.00757598876953 C 39.49473571777344 25.99726676940918 37.92350769042969 27.61599540710449 35.99219512939453 27.61599540710449 L 21.04108428955078 27.61599540710449 L 26.00578689575195 32.36547470092773 L 26.02274703979492 32.38170623779297 L 26.03892707824707 32.39871597290039 C 27.36765670776367 33.79499435424805 27.36755561828613 36.0662956237793 26.0386962890625 37.46184539794922 C 25.37880706787109 38.15480422973633 24.49735641479492 38.53643798828125 23.55670547485352 38.53643798828125 C 22.62405395507813 38.53643798828125 21.74691390991211 38.16087341308594 21.08473014831543 37.47856521606445 M 47.99991607666016 47.99991607666016 L 6.130981546448311e-06 47.99991607666016 L 6.130981546448311e-06 6.130981546448311e-06 L 47.99991607666016 6.130981546448311e-06 L 47.99991607666016 47.99991607666016 Z M 23.55762672424316 10.47901630401611 C 22.89278602600098 10.47901630401611 22.26601600646973 10.75031566619873 21.79279518127441 11.24293613433838 L 10.5365161895752 22.16582679748535 C 10.0564661026001 22.62975692749023 9.802705764770508 23.26115608215332 9.802705764770508 23.99176597595215 L 9.802705764770508 24.02401542663574 C 9.802705764770508 24.75458526611328 10.0564661026001 25.38599586486816 10.5365161895752 25.84995651245117 L 21.79279518127441 36.77223587036133 C 22.26618576049805 37.26505661010742 22.89260673522949 37.53643798828125 23.55670547485352 37.53643798828125 C 24.22100639343262 37.53643798828125 24.84524536132813 37.2650260925293 25.31451606750488 36.77223587036133 C 26.28140640258789 35.7568244934082 26.28140640258789 34.1041259765625 25.31451606750488 33.08807754516602 L 18.54915618896484 26.61599540710449 L 35.99219512939453 26.61599540710449 C 37.37208557128906 26.61599540710449 38.49473571777344 25.44586563110352 38.49473571777344 24.00757598876953 C 38.49473571777344 23.30096626281738 38.23532485961914 22.64247703552246 37.76427459716797 22.15326690673828 C 37.29610443115234 21.66697692871094 36.66978454589844 21.39918518066406 36.00069427490234 21.39918518066406 L 18.55707550048828 21.39918518066406 L 25.32242584228516 14.92770576477051 C 26.28917694091797 13.91179656982422 26.28917694091797 12.25881576538086 25.32242584228516 11.24293613433838 C 24.84924697875977 10.75031566619873 24.22247695922852 10.47901630401611 23.55762672424316 10.47901630401611 Z"/>
  </g>
</svg>
