<svg id="picto_fleche_droite_bg_blanc" xmlns="http://www.w3.org/2000/svg" width="48" height="48" viewBox="0 0 48 48">
  <defs>
    <style>
      .cls-1 {
        fill: none;
      }

      .cls-2, .cls-3 {
        stroke: none;
      }

      .cls-3 {
        fill: #001f44;
      }
    </style>
  </defs>
  <g id="Soustraction_2" data-name="Soustraction 2" class="cls-1" transform="translate(48 48) rotate(180)">
    <path class="cls-2" d="M48,48H0V0H48V48ZM23.558,10.479a2.433,2.433,0,0,0-1.765.764L10.537,22.166A2.47,2.47,0,0,0,9.8,23.992v.032a2.47,2.47,0,0,0,.734,1.826L21.793,36.772a2.411,2.411,0,0,0,3.522,0,2.7,2.7,0,0,0,0-3.684l-6.765-6.472H35.992a2.56,2.56,0,0,0,2.5-2.608,2.653,2.653,0,0,0-.73-1.854A2.429,2.429,0,0,0,36,21.4H18.557l6.765-6.471a2.7,2.7,0,0,0,0-3.685A2.433,2.433,0,0,0,23.558,10.479Z"/>
    <path class="cls-3" d="M 45.99991607666016 45.99991607666016 L 45.99991607666016 2.000006198883057 L 2.000006198883057 2.000006198883057 L 2.000006198883057 45.99991607666016 L 45.99991607666016 45.99991607666016 M 20.37842178344727 38.18661499023438 L 9.1466064453125 27.28806686401367 C 8.279975891113281 26.45048522949219 7.802706241607666 25.29128646850586 7.802706241607666 24.02401542663574 L 7.802706241607666 23.99176597595215 C 7.802706241607666 22.72443580627441 8.279995918273926 21.56522560119629 9.143715858459473 20.73051643371582 L 20.37823677062988 9.828742027282715 C 21.22895050048828 8.958020210266113 22.3564453125 8.479016304016113 23.55762672424316 8.479016304016113 C 24.77198600769043 8.479016304016113 25.91098594665527 8.96855640411377 26.76481628417969 9.857465744018555 L 26.76803588867188 9.86082649230957 L 26.77123641967773 9.86418628692627 C 28.46145629882813 11.64030647277832 28.46146583557129 14.53027629852295 26.77125549316406 16.30642700195313 L 26.73886680603027 16.34047698974609 L 26.70490646362305 16.37295532226563 L 23.5412540435791 19.39918518066406 L 36.00069427490234 19.39918518066406 C 37.21841430664063 19.39918518066406 38.35642623901367 19.88464546203613 39.20497512817383 20.76604652404785 C 40.03668594360352 21.62982559204102 40.49473571777344 22.78102684020996 40.49473571777344 24.00757598876953 C 40.49473571777344 26.54866600036621 38.47490692138672 28.61599540710449 35.99219512939453 28.61599540710449 L 23.53300285339355 28.61599540710449 L 26.69705581665039 31.64288520812988 L 26.73098564147949 31.67533683776855 L 26.76334571838379 31.70934677124023 C 28.45390701293945 33.48586654663086 28.45371627807617 36.37576675415039 26.76286697387695 38.15146636962891 C 25.91238594055176 39.04457473754883 24.77374649047852 39.53643798828125 23.55670547485352 39.53643798828125 C 22.35630989074707 39.53643798828125 21.22925758361816 39.05743789672852 20.37842178344727 38.18661499023438 M 47.99991607666016 47.99991607666016 L 6.130981546448311e-06 47.99991607666016 L 6.130981546448311e-06 6.130981546448311e-06 L 47.99991607666016 6.130981546448311e-06 L 47.99991607666016 47.99991607666016 Z M 23.55762672424316 10.47901630401611 C 22.89278602600098 10.47901630401611 22.26601600646973 10.75031566619873 21.79279518127441 11.24293613433838 L 10.5365161895752 22.16582679748535 C 10.0564661026001 22.62975692749023 9.802705764770508 23.26115608215332 9.802705764770508 23.99176597595215 L 9.802705764770508 24.02401542663574 C 9.802705764770508 24.75458526611328 10.0564661026001 25.38599586486816 10.5365161895752 25.84995651245117 L 21.79279518127441 36.77223587036133 C 22.26618576049805 37.26505661010742 22.89260673522949 37.53643798828125 23.55670547485352 37.53643798828125 C 24.22100639343262 37.53643798828125 24.84524536132813 37.2650260925293 25.31451606750488 36.77223587036133 C 26.28140640258789 35.7568244934082 26.28140640258789 34.1041259765625 25.31451606750488 33.08807754516602 L 18.54915618896484 26.61599540710449 L 35.99219512939453 26.61599540710449 C 37.37208557128906 26.61599540710449 38.49473571777344 25.44586563110352 38.49473571777344 24.00757598876953 C 38.49473571777344 23.30096626281738 38.23532485961914 22.64247703552246 37.76427459716797 22.15326690673828 C 37.29610443115234 21.66697692871094 36.66978454589844 21.39918518066406 36.00069427490234 21.39918518066406 L 18.55707550048828 21.39918518066406 L 25.32242584228516 14.92770576477051 C 26.28917694091797 13.91179656982422 26.28917694091797 12.25881576538086 25.32242584228516 11.24293613433838 C 24.84924697875977 10.75031566619873 24.22247695922852 10.47901630401611 23.55762672424316 10.47901630401611 Z"/>
  </g>
</svg>
