<svg xmlns="http://www.w3.org/2000/svg" width="79.577" height="65.822" viewBox="0 0 79.577 65.822"><defs><style>.a{fill:#fd9e00;stroke-width:2px;}.a,.b{stroke:#fd9e00;}.a,.b,.e{stroke-miterlimit:10;}.b{fill:#2b3642;}.b,.c,.d,.e{stroke-width:2.5px;}.c,.d{fill:none;stroke-linejoin:round;}.c,.d,.e{stroke:#fff;}.d{stroke-linecap:round;}.e{fill:#fff;}</style></defs><g transform="translate(-889.877 -423.637)"><g transform="translate(904.216 457.066)"><g transform="translate(0 0)"><path class="a" d="M904.739,455a.856.856,0,1,1-.855-.857A.854.854,0,0,1,904.739,455Z" transform="translate(-903.027 -454.144)"/></g><g transform="translate(8.661)"><circle class="b" cx="0.857" cy="0.857" r="0.857"/></g><g transform="translate(17.324)"><circle class="b" cx="0.857" cy="0.857" r="0.857"/></g></g><path class="c" d="M938.428,459.224h6.35l11.254,13.059,0-13.059h3.042a6.253,6.253,0,0,0,6.235-6.234V431.122a6.254,6.254,0,0,0-6.235-6.235H926.317a6.254,6.254,0,0,0-6.235,6.235v4.843" transform="translate(2.892)"/><path class="d" d="M900.407,486.762V473.7h-3.043a6.254,6.254,0,0,1-6.235-6.236V445.6a6.253,6.253,0,0,1,6.235-6.235h32.759a6.253,6.253,0,0,1,6.235,6.235v21.866a6.254,6.254,0,0,1-6.235,6.236H911.661Z" transform="translate(0 1.446)"/><g transform="translate(944.265 441.129)"><circle class="e" cx="0.857" cy="0.857" r="0.857"/></g><g transform="translate(952.928 441.129)"><circle class="e" cx="0.857" cy="0.857" r="0.857"/></g></g></svg>