<svg xmlns="http://www.w3.org/2000/svg" width="98.478" height="98.717" viewBox="0 0 98.478 98.717">
  <g id="picto_atom" transform="translate(1.837 1.79)">
    <path id="Tracé_77" data-name="Tracé 77" d="M13.48,25.795C3.267,16.789-2.035,8.152.726,3.416,3.01-.505,10.349-.939,20.114,1.544" transform="translate(57.286 95.014) rotate(-135)" fill="none" stroke="#13142c" stroke-linecap="round" stroke-miterlimit="10" stroke-width="2.5"/>
    <path id="Tracé_78" data-name="Tracé 78" d="M39.938.328a6.964,6.964,0,0,1-.275,5.629C35.966,12.3,19.031,9.522,0,0" transform="translate(59.486 35.183) rotate(-135)" fill="none" stroke="#13142c" stroke-linecap="round" stroke-miterlimit="10" stroke-width="2.5"/>
    <path id="Tracé_79" data-name="Tracé 79" d="M0,0C10.582,6.216,19.38,13.21,25.141,19.574" transform="translate(32.693 50.822) rotate(-135)" fill="none" stroke="#13142c" stroke-linecap="round" stroke-miterlimit="10" stroke-width="2.5"/>
    <path id="Tracé_80" data-name="Tracé 80" d="M6.047,34.243c5.85-6.817,15.563-14.5,27.42-21.188C55.661.545,76.966-3.716,81.052,3.541S70.464,26.822,48.272,39.332,4.772,56.1.685,48.844A6.132,6.132,0,0,1,.126,44.7" transform="translate(57.798 94.926) rotate(-135)" fill="none" stroke="#fd9e00" stroke-miterlimit="10" stroke-width="2.5"/>
    <path id="Tracé_81" data-name="Tracé 81" d="M0,2.446A6.828,6.828,0,0,1,4.839,0c4.651-.014,8.827,6.411,11.617,16.521" transform="translate(18.312 83.62) rotate(-135)" fill="none" stroke="#13142c" stroke-linecap="round" stroke-miterlimit="10" stroke-width="2.5"/>
    <path id="Tracé_82" data-name="Tracé 82" d="M26.6,62.409c-2.742,9.832-6.825,16.064-11.4,16.078C6.867,78.513.064,57.885,0,32.413-.029,19.784,1.6,8.336,4.272,0" transform="translate(35.198 81.062) rotate(-135)" fill="none" stroke="#13142c" stroke-linecap="round" stroke-miterlimit="10" stroke-width="2.5"/>
    <path id="Tracé_83" data-name="Tracé 83" d="M12.045,6.021A6.022,6.022,0,1,1,6.026,0,6.026,6.026,0,0,1,12.045,6.021Z" transform="translate(26.478 89.012) rotate(-135)" fill="none" stroke="#13142c" stroke-linejoin="round" stroke-width="2.5"/>
    <path id="Tracé_84" data-name="Tracé 84" d="M12.045,6.021A6.023,6.023,0,1,1,6.026,0,6.025,6.025,0,0,1,12.045,6.021Z" transform="translate(83.863 73.958) rotate(-135)" fill="none" stroke="#fd9e00" stroke-linejoin="round" stroke-width="2.5"/>
    <path id="Tracé_85" data-name="Tracé 85" d="M12.045,6.021A6.023,6.023,0,1,1,6.026,0,6.024,6.024,0,0,1,12.045,6.021Z" transform="translate(29.641 21.215) rotate(-135)" fill="none" stroke="#13142c" stroke-linejoin="round" stroke-width="2.5"/>
    <path id="Tracé_86" data-name="Tracé 86" d="M1057.694,570.071a2.986,2.986,0,1,1,1.475-5.585,2.977,2.977,0,0,1,1.129,4.065A2.994,2.994,0,0,1,1057.694,570.071Z" transform="translate(-1009.208 -519.132)" fill="none" stroke="#13142c" stroke-miterlimit="10" stroke-width="2.5"/>
  </g>
</svg>
