<svg xmlns="http://www.w3.org/2000/svg" viewBox="0 0 33.27 41.62">
    <defs>
        <style>
            .cls-1{fill:#f7a600;}.cls-2{fill:none;stroke:#fff;stroke-linecap:round;stroke-miterlimit:10;stroke-width:1.75px;}
        </style>
    </defs>
    <g id="Calque_2" data-name="Calque 2">
        <g id="Calque_3" data-name="Calque 3">
            <path class="cls-1"
                  d="M4.19,1.57C4.28,3,4.1,6.86,4.66,8.18s.77,4.53,1.52,5.74a26.46,26.46,0,0,0,5,5.14,17.19,17.19,0,0,0,6.17,1.31c1.61-.17,4.65-.94,6.08-2.19s3.36-3.18,3.9-4.58a39.32,39.32,0,0,0,1.41-5.91c.07-.76.41-6.37.41-6.37Z"/>
            <line class="cls-2" x1="0.88" y1="0.88" x2="32.39" y2="0.88"/>
            <path class="cls-2"
                  d="M29.18.88S29,7.11,28.57,9.23c-.52,2.77-.9,5-3.68,7.69s-4.91,3.45-8.2,3.45h0c-3.3,0-5.42-.75-8.2-3.45S5.33,12,4.81,9.23C4.41,7.11,4.19.88,4.19.88"/>
            <line class="cls-2" x1="0.88" y1="40.74" x2="32.39" y2="40.74"/>
            <path class="cls-2"
                  d="M29.18,40.74s-.22-6.23-.61-8.35c-.52-2.77-.9-5-3.68-7.69s-4.91-3.45-8.2-3.45h0c-3.3,0-5.42.75-8.2,3.45s-3.16,4.92-3.68,7.69c-.4,2.12-.62,8.35-.62,8.35"/>
        </g>
    </g>
</svg>