<?xml version="1.0" encoding="utf-8"?>
<!-- Generator: Adobe Illustrator 24.3.0, SVG Export Plug-In . SVG Version: 6.00 Build 0)  -->
<svg version="1.1" id="Calque_1" xmlns="http://www.w3.org/2000/svg" xmlns:xlink="http://www.w3.org/1999/xlink" x="0px" y="0px"
	 viewBox="0 0 55.5 45.9" style="enable-background:new 0 0 55.5 45.9;" xml:space="preserve">
<style type="text/css">
	.st0{fill:#3A4553;stroke:#F7A600;stroke-width:1.75;stroke-miterlimit:10;}
	.st1{fill:none;stroke:#FFFFFF;stroke-width:1.75;stroke-linejoin:round;}
	.st2{fill:none;stroke:#F7A600;stroke-width:1.75;stroke-linecap:round;stroke-linejoin:round;}
	.st3{fill:#3A4553;stroke:#FFFFFF;stroke-width:1.75;stroke-miterlimit:10;}
</style>
<text transform="matrix(1 0 0 1 960 540)" style="font-family:'MyriadPro-Regular'; font-size:12px;">picto_keyfact_language</text>
<g id="Calque_2_1_">
	<g id="Calque_1-2">
		<path class="st0" d="M11.2,23.9c0,0.3-0.2,0.6-0.6,0.6c0,0,0,0,0,0c-0.3,0-0.6-0.3-0.6-0.6c0,0,0,0,0,0c0-0.3,0.3-0.6,0.6-0.6h0
			C10.9,23.3,11.2,23.6,11.2,23.9C11.2,23.9,11.2,23.9,11.2,23.9z"/>
		<circle class="st0" cx="16.6" cy="23.9" r="0.6"/>
		<circle class="st0" cx="22.7" cy="23.9" r="0.6"/>
		<path class="st1" d="M35.9,24.8h4.4l7.8,9.2v-9.2h2.1c2.4,0,4.3-1.9,4.3-4.4V5.2c0-2.4-1.9-4.3-4.3-4.3H27.5
			c-2.4,0-4.4,1.9-4.4,4.3l0,0v3.4"/>
		<path class="st2" d="M7.3,45.1V36H5.2c-2.4,0-4.4-2-4.4-4.4c0,0,0,0,0,0V16.3c0-2.4,2-4.3,4.3-4.3h22.9c2.4,0,4.4,1.9,4.4,4.4l0,0
			v15.2c0,2.4-1.9,4.4-4.3,4.4c0,0,0,0,0,0H15.2L7.3,45.1z"/>
		<circle class="st3" cx="38.5" cy="12.8" r="0.6"/>
		<circle class="st3" cx="44.6" cy="12.8" r="0.6"/>
	</g>
</g>
</svg>
