<svg xmlns="http://www.w3.org/2000/svg" width="29.667" height="39.556" viewBox="0 0 29.667 39.556"><defs><style>.a{fill:#fff;}.b{fill:#fd9e00;}</style></defs><g transform="translate(-360.75 -862)"><path class="a" d="M27.813,4.944A1.854,1.854,0,0,0,29.667,3.09V1.854A1.854,1.854,0,0,0,27.813,0H1.854A1.854,1.854,0,0,0,0,1.854V3.09A1.854,1.854,0,0,0,1.854,4.944c0,7.028,3.941,12.959,9.336,14.833C5.8,21.653,1.854,27.583,1.854,34.611A1.854,1.854,0,0,0,0,36.465V37.7a1.854,1.854,0,0,0,1.854,1.854H27.813A1.854,1.854,0,0,0,29.667,37.7V36.465a1.854,1.854,0,0,0-1.854-1.854c0-7.028-3.941-12.959-9.336-14.833C23.871,17.9,27.813,11.972,27.813,4.944ZM14.833,16.069C10.369,16.069,6.8,10.93,6.8,4.944H22.868C22.868,10.966,19.275,16.069,14.833,16.069Z" transform="translate(390.417 901.556) rotate(180)"/><path class="b" d="M16.8,17.5c-4.464,0-8.035-5.139-8.035-11.125H24.835C24.835,12.4,21.242,17.5,16.8,17.5Z" transform="translate(358.783 860.497)"/></g></svg>