<svg xmlns="http://www.w3.org/2000/svg" width="59.507" height="59.379" viewBox="0 0 59.507 59.379"><defs><style>.a,.b,.c{fill:none;stroke-linejoin:round;stroke-width:2.5px;}.a{stroke:#fd9e00;}.b{stroke:#f7a600;}.c{stroke:#fff;}.d{fill:#fff;}</style></defs><g transform="translate(-42.219 -32.796)"><path class="a" d="M83.583,86.08,70.561,90.925,74.332,77.34,90.456,59.061c.89-1.007,2.757-.829,4.149.392l4.479,3.954c1.391,1.227,1.8,3.058.91,4.066Z"/><line class="a" x1="9.277" y1="8.186" transform="translate(74.896 76.907)"/><line class="b" x1="2.565" y1="2.32" transform="translate(71.961 86.923)"/><line class="a" y1="10.348" x2="9.127" transform="translate(79.713 70.741)"/><line class="a" x2="9.117" y2="8.042" transform="translate(87.206 63.171)"/><path class="c" d="M67.627,83.879H46.469a3.009,3.009,0,0,1-3-3V37.046a3.009,3.009,0,0,1,3-3H84.3a3.009,3.009,0,0,1,3,3V55.408"/><rect class="d" width="42.732" height="9.311" transform="translate(43.937 34.252)"/></g></svg>