<svg xmlns="http://www.w3.org/2000/svg" width="27.974" height="21.308" viewBox="0 0 27.974 21.308"><g transform="translate(0 -61)"><g transform="translate(1.405 61)"><path d="M49.831,61H26.774a2.43,2.43,0,0,0-1.053.246L38.248,73.773l2.808-2.7h0l9.828-9.828A2.43,2.43,0,0,0,49.831,61Z" transform="translate(-25.721 -61)" fill="#fff"/></g><g transform="translate(18.479 62.406)"><path d="M347.462,86.728l-9.249,9.249,9.249,9.249a2.43,2.43,0,0,0,.246-1.053V87.781A2.43,2.43,0,0,0,347.462,86.728Z" transform="translate(-338.213 -86.728)" fill="#fff"/></g><g transform="translate(0 62.405)"><path d="M.246,86.721A2.43,2.43,0,0,0,0,87.774v16.391a2.431,2.431,0,0,0,.246,1.053L9.5,95.97Z" transform="translate(0 -86.721)" fill="#fff"/></g><g transform="translate(1.405 72.813)"><path d="M41.629,277.211l-2.808,2.7a.819.819,0,0,1-1.159,0l-2.7-2.7-9.249,9.249a2.43,2.43,0,0,0,1.054.247H49.824a2.43,2.43,0,0,0,1.053-.246Z" transform="translate(-25.714 -277.211)" fill="#fff"/></g></g></svg>